PathFileType	4	(X/Y/Z)	joints.trc
DataRate	CameraRate	NumFrames	NumMarkers	Units	OrigDataRate	OrigDataStartFrame	OrigNumFrames
30.0	30.0	10	24	m	30.0	1	100
Frame#	Time	pelvis			femur_r			tibia_r			talus_r			calcn_r			toes_r			femur_l			tibia_l			talus_l			calcn_l			toes_l			lumbar_body			thorax			head			scapula_r			humerus_r			ulna_r			radius_r			hand_r			scapula_l			humerus_l			ulna_l			radius_l			hand_l		
		X1	Y1	Z1	X2	Y2	Z2	X3	Y3	Z3	X4	Y4	Z4	X5	Y5	Z5	X6	Y6	Z6	X7	Y7	Z7	X8	Y8	Z8	X9	Y9	Z9	X10	Y10	Z10	X11	Y11	Z11	X12	Y12	Z12	X13	Y13	Z13	X14	Y14	Z14	X15	Y15	Z15	X16	Y16	Z16	X17	Y17	Z17	X18	Y18	Z18	X19	Y19	Z19	X20	Y20	Z20	X21	Y21	Z21	X22	Y22	Z22	X23	Y23	Z23	X24	Y24	Z24
1	0.000000	0.010311	-0.226366	0.094544	-0.084017	-0.296953	0.042366	-0.283582	-0.689657	0.030089	-0.451485	-0.882918	-0.347822	-0.474891	-0.865413	-0.405060	-0.504305	-1.035331	-0.295881	0.063781	-0.254838	-0.019106	-0.019767	-0.681037	0.055119	-0.181478	-0.885379	-0.318745	-0.181345	-0.870693	-0.380895	-0.225392	-1.044517	-0.288063	-0.043772	-0.061545	0.079076	-0.055056	0.213075	0.276823	-0.070918	0.297589	0.376468	-0.185302	0.202206	0.348923	-0.193989	0.163893	0.337015	-0.489144	0.192867	0.326933	-0.490248	0.194919	0.349018	-0.521775	0.007262	0.535316	0.083343	0.273450	0.202306	0.092168	0.261923	0.163706	0.355568	0.391256	0.168481	0.358640	0.385590	0.190816	0.514733	0.198559	0.293015
2	0.033333	0.009499	-0.227776	0.103727	-0.093497	-0.300187	0.078894	-0.383746	-0.593023	0.134614	-0.570769	-0.797256	-0.194964	-0.573996	-0.777458	-0.253981	-0.660149	-0.929958	-0.163826	0.069049	-0.338112	0.079032	0.025789	-0.641729	0.358966	-0.042019	-0.960867	0.078679	-0.031204	-0.962946	0.017419	-0.079838	-1.104655	0.144440	0.027611	-0.147022	-0.065926	0.111009	0.118052	-0.244996	0.156817	0.207451	-0.320172	-0.006532	0.204572	-0.283520	-0.038144	0.191404	-0.264038	-0.236030	0.249344	-0.458110	-0.227606	0.264596	-0.472076	-0.308145	0.503482	-0.502525	0.263339	0.062108	-0.197186	0.265635	0.024252	-0.185950	0.425602	-0.198451	-0.244058	0.443955	-0.184948	-0.237313	0.542286	-0.186412	-0.003880
3	0.066667	0.009499	-0.227776	0.103727	-0.036350	-0.326041	0.035098	-0.034352	-0.726396	-0.078102	0.100048	-1.073443	-0.294448	0.109425	-1.121765	-0.332691	-0.049061	-1.054557	-0.236922	0.115010	-0.299791	0.100370	0.166132	-0.697294	0.208978	0.132045	-0.623819	-0.213452	0.134567	-0.561638	-0.212292	0.155503	-0.688394	-0.360872	0.003248	-0.117558	-0.025646	-0.055368	0.196932	-0.074730	0.002970	0.300658	-0.103132	-0.200288	0.233620	-0.114002	-0.218583	0.198940	-0.110147	-0.493323	0.130622	-0.115715	-0.504892	0.144394	-0.128950	-0.701625	0.294811	-0.072822	0.074433	0.182851	0.035406	0.089432	0.146271	0.036647	0.241096	0.057487	0.254999	0.234793	0.080341	0.256603	0.002304	0.180804	0.260916
4	0.100000	0.009499	-0.227776	0.103727	-0.102499	-0.254559	0.047093	-0.436062	-0.501841	0.020851	-0.610987	-0.380151	-0.353186	-0.611778	-0.330929	-0.391421	-0.747677	-0.467909	-0.351745	0.048904	-0.321782	0.026655	-0.107832	-0.697355	-0.055789	0.049283	-0.723111	-0.455363	0.091311	-0.707186	-0.498423	-0.002092	-0.876753	-0.465188	0.055610	-0.078680	0.001911	0.142156	0.239977	0.004768	0.143379	0.365185	0.009885	0.002767	0.299082	0.002181	-0.021995	0.268826	0.007049	-0.296264	0.199262	0.017896	-0.303719	0.218169	0.027149	-0.350809	0.266294	0.271988	0.308295	0.205177	0.020919	0.322032	0.170200	0.008570	0.578734	0.105756	0.100837	0.577513	0.126743	0.111912	0.495679	0.167563	0.348132
5	0.133333	0.009499	-0.227776	0.103727	-0.028718	-0.283834	-0.005200	0.069729	-0.611531	-0.241896	0.039816	-0.584185	-0.670461	0.008393	-0.548601	-0.710857	0.071650	-0.734825	-0.722069	0.123160	-0.237364	0.046114	0.396126	-0.511303	-0.105098	0.477327	-0.236375	-0.425767	0.466992	-0.175591	-0.434294	0.575158	-0.303426	-0.536956	-0.033279	-0.049337	0.055067	-0.142861	0.258140	0.109357	-0.190289	0.371458	0.133138	-0.272041	0.270203	0.034716	-0.281193	0.232758	0.026569	-0.499923	0.124726	-0.117190	-0.510702	0.144240	-0.118487	-0.682600	0.242258	0.040646	0.003194	0.281665	0.194895	0.034942	0.258888	0.188745	0.284137	0.379682	0.232030	0.276071	0.388517	0.252561	0.326281	0.289700	0.480325
6	0.166667	0.009499	-0.227776	0.103727	-0.088113	-0.307825	0.080655	-0.216152	-0.701862	0.042668	-0.085274	-0.824692	-0.348605	-0.069749	-0.799978	-0.403683	-0.152927	-0.972188	-0.356445	0.076477	-0.328225	0.061846	-0.072373	-0.668113	0.248227	-0.295563	-0.856056	-0.067797	-0.300687	-0.857227	-0.129818	-0.335886	-0.995436	0.005240	0.004442	-0.126945	-0.052166	0.012642	0.161833	-0.214104	-0.001697	0.263576	-0.285986	-0.121964	0.224645	-0.209492	-0.136965	0.204355	-0.179234	-0.380051	0.349484	-0.184438	-0.377960	0.364762	-0.200591	-0.360845	0.617154	-0.178578	0.178717	0.129532	-0.233789	0.192235	0.092700	-0.228767	0.442295	-0.022521	-0.281270	0.454759	-0.002788	-0.285728	0.650259	0.083064	-0.149450
7	0.200000	0.009499	-0.227776	0.103727	-0.042149	-0.344149	0.087664	-0.037257	-0.695781	0.310000	0.081589	-0.840821	-0.077492	0.084325	-0.849875	-0.139103	0.076367	-0.977585	0.010675	0.108855	-0.285351	0.047660	0.137878	-0.699453	0.037922	0.083812	-0.922339	-0.325955	0.084989	-0.918374	-0.388060	0.127006	-1.067433	-0.267241	-0.060103	-0.132078	-0.014291	-0.130975	0.185930	-0.059046	-0.166567	0.305335	-0.069226	-0.243514	0.193427	-0.160072	-0.252936	0.155179	-0.159320	-0.307081	-0.006318	-0.385522	-0.328440	-0.001642	-0.380979	-0.476707	-0.097918	-0.198696	0.002367	0.212064	0.041664	0.027019	0.181306	0.044947	0.256886	0.166444	0.204643	0.247057	0.186925	0.211608	0.054716	0.202819	0.375666
8	0.233333	0.009499	-0.227776	0.103727	-0.105555	-0.241939	0.048680	-0.275456	-0.612183	-0.035903	-0.494625	-0.568288	-0.403802	-0.527067	-0.533632	-0.444199	-0.528483	-0.727599	-0.409826	0.046571	-0.286626	-0.003476	-0.095538	-0.676529	0.010598	-0.259525	-0.811190	-0.363545	-0.256721	-0.794994	-0.423578	-0.320258	-0.959825	-0.337698	0.052128	-0.058917	0.066228	0.194125	0.212578	0.191664	0.229517	0.327359	0.227396	0.087179	0.288353	0.262496	0.058388	0.261720	0.266237	-0.160469	0.331939	0.431620	-0.155394	0.352861	0.437551	-0.066304	0.431127	0.662089	0.338943	0.163802	0.119431	0.334197	0.136994	0.090736	0.547129	0.019161	-0.048325	0.568839	0.027243	-0.043036	0.780162	-0.110982	-0.063008
9	0.266667	0.009499	-0.227776	0.103727	-0.097433	-0.285294	0.062188	-0.065795	-0.699366	0.087589	-0.003001	-0.907951	-0.283706	-0.008400	-0.920731	-0.344475	0.030036	-1.037521	-0.190562	0.063216	-0.317793	0.030641	0.080817	-0.716375	-0.084425	-0.097633	-0.903326	-0.428245	-0.120974	-0.885179	-0.483018	-0.038690	-1.054733	-0.427680	0.011415	-0.083069	0.003065	0.057572	0.244257	0.019504	0.075044	0.367762	0.028340	-0.066106	0.327190	0.043574	-0.093345	0.299982	0.051942	-0.316527	0.404702	0.191240	-0.303581	0.422654	0.194203	-0.115620	0.444969	0.363474	0.215272	0.176982	0.016109	0.218902	0.140719	0.000733	0.471100	0.124334	-0.120471	0.486660	0.131196	-0.103875	0.692840	0.004458	-0.029111
10	0.300000	0.009499	-0.227776	0.103727	-0.057865	-0.319451	0.044347	0.245881	-0.595179	-0.025036	0.259362	-0.714625	-0.438390	0.224873	-0.719613	-0.490073	0.372725	-0.829496	-0.420272	0.087492	-0.247742	0.004488	0.277463	-0.615219	0.040398	0.324186	-0.608374	-0.387128	0.330336	-0.580511	-0.442445	0.418000	-0.738981	-0.366395	-0.066687	-0.082261	0.067280	-0.164837	0.214685	0.170787	-0.232222	0.320416	0.173092	-0.302142	0.195486	0.226132	-0.307532	0.158450	0.238442	-0.570103	0.070400	0.297469	-0.575945	0.091541	0.293274	-0.550297	0.298160	0.438637	-0.020580	0.283730	0.128235	0.008373	0.263432	0.110505	0.169865	0.413197	-0.062852	0.171388	0.425698	-0.042702	0.325617	0.369250	0.150144
